<?xml version="1.0" encoding="UTF-8"?>
<svg width="42px" height="42px" viewBox="0 0 42 42" version="1.1" xmlns="http://www.w3.org/2000/svg" xmlns:xlink="http://www.w3.org/1999/xlink">
    <!-- Generator: Sketch 51.3 (57544) - http://www.bohemiancoding.com/sketch -->
    <title>instagram</title>
    <desc>Created with Sketch.</desc>
    <defs/>
    <g id="History" stroke="none" stroke-width="1" fill="none" fill-rule="evenodd">
        <g id="MMS---Desktop---History" transform="translate(-685.000000, -614.000000)">
            <g id="Intro" transform="translate(-307.000000, -11.000000)">
                <g id="Social" transform="translate(888.000000, 626.000000)">
                    <g id="instagram" transform="translate(105.000000, 0.000000)">
                        <circle id="Oval-2" stroke="#F9F9F9" stroke-width="0.8" fill="#F5F5F5" cx="20" cy="20" r="20.4"/>
                        <path d="M26.676,18.54 L25.3304,18.54 C25.428,18.92 25.4864,19.3184 25.4864,19.7296 C25.4864,22.3568 23.3568,24.4864 20.7296,24.4864 C18.1024,24.4864 15.9728,22.3568 15.9728,19.7296 C15.9728,19.3184 16.0312,18.92 16.1288,18.54 L14.7832,18.54 L14.7832,25.0808 C14.7832,25.4088 15.0496,25.6752 15.3784,25.6752 L26.0808,25.6752 C26.4096,25.6752 26.676,25.4088 26.676,25.0808 L26.676,18.54 L26.676,18.54 Z M26.676,14.3776 C26.676,14.0496 26.4096,13.7832 26.0808,13.7832 L24.2976,13.7832 C23.9688,13.7832 23.7032,14.0496 23.7032,14.3776 L23.7032,16.1616 C23.7032,16.4904 23.9688,16.756 24.2976,16.756 L26.0808,16.756 C26.4096,16.756 26.676,16.4904 26.676,16.1616 L26.676,14.3776 L26.676,14.3776 Z M20.7296,16.756 C19.0872,16.756 17.7568,18.0872 17.7568,19.7296 C17.7568,21.3712 19.0872,22.7024 20.7296,22.7024 C22.3712,22.7024 23.7032,21.3712 23.7032,19.7296 C23.7032,18.0872 22.3712,16.756 20.7296,16.756 L20.7296,16.756 Z M26.676,27.4592 L14.7832,27.4592 C13.7984,27.4592 13,26.6608 13,25.6752 L13,13.7832 C13,12.7984 13.7984,12 14.7832,12 L26.676,12 C27.6608,12 28.4592,12.7984 28.4592,13.7832 L28.4592,25.6752 C28.4592,26.6608 27.6608,27.4592 26.676,27.4592 L26.676,27.4592 Z" id="Instagram" fill="#592411"/>
                    </g>
                </g>
            </g>
        </g>
    </g>
</svg>