<?xml version="1.0" encoding="UTF-8"?>
<svg width="41px" height="40px" viewBox="0 0 41 40" version="1.1" xmlns="http://www.w3.org/2000/svg" xmlns:xlink="http://www.w3.org/1999/xlink">
    <!-- Generator: Sketch 51.3 (57544) - http://www.bohemiancoding.com/sketch -->
    <title>twitter</title>
    <desc>Created with Sketch.</desc>
    <defs/>
    <g id="History" stroke="none" stroke-width="1" fill="none" fill-rule="evenodd">
        <g id="MMS---Desktop---History" transform="translate(-631.000000, -615.000000)">
            <g id="Intro" transform="translate(-307.000000, -11.000000)">
                <g id="Social" transform="translate(888.000000, 626.000000)">
                    <g id="twitter" transform="translate(50.000000, 0.000000)">
                        <circle id="Oval-2" fill="#F5F5F5" cx="20.9643229" cy="20" r="20"/>
                        <path d="M27.1035229,16.8516 C27.1091229,16.9876 27.1123229,17.1244 27.1123229,17.262 C27.1123229,21.4476 23.9267229,26.2732 18.1011229,26.2732 C16.3123229,26.2732 14.6475229,25.7492 13.2451229,24.8508 C13.4931229,24.8796 13.7451229,24.8948 14.0011229,24.8948 C15.4851229,24.8948 16.8507229,24.3884 17.9347229,23.5388 C16.5483229,23.5132 15.3787229,22.5972 14.9763229,21.3388 C15.1691229,21.3764 15.3675229,21.3964 15.5715229,21.3964 C15.8603229,21.3964 16.1403229,21.3572 16.4059229,21.2852 C14.9571229,20.994 13.8659229,19.714 13.8659229,18.1796 L13.8659229,18.1396 C14.2931229,18.3764 14.7811229,18.5188 15.3003229,18.5356 C14.4507229,17.9676 13.8915229,16.998 13.8915229,15.8996 C13.8915229,15.3188 14.0475229,14.7748 14.3203229,14.3068 C15.8827229,16.2228 18.2163229,17.4844 20.8483229,17.6164 C20.7947229,17.3844 20.7667229,17.1428 20.7667229,16.894 C20.7667229,15.1452 22.1843229,13.7268 23.9339229,13.7268 C24.8451229,13.7268 25.6683229,14.1116 26.2459229,14.7276 C26.9675229,14.5852 27.6451229,14.322 28.2571229,13.9588 C28.0211229,14.698 27.5187229,15.3188 26.8643229,15.7108 C27.5051229,15.6348 28.1155229,15.4644 28.6835229,15.2124 C28.2587229,15.8476 27.7219229,16.4052 27.1035229,16.8516" id="Twitter" fill="#592411"/>
                    </g>
                </g>
            </g>
        </g>
    </g>
</svg>